<svg width="166" height="56" viewBox="0 0 166 56" fill="none" xmlns="http://www.w3.org/2000/svg">
<path d="M33.1719 40.0469H2.07812V38.875H16.9609V29.9688H18.1719V38.875H33.1719V40.0469ZM18.1719 18.7578C18.1719 20.8151 18.8229 22.638 20.125 24.2266C21.4401 25.8151 23.0482 27.1042 24.9492 28.0938C26.8503 29.0833 28.7448 29.7865 30.6328 30.2031L29.9688 31.2188C28.276 30.7891 26.5964 30.1771 24.9297 29.3828C23.276 28.5755 21.7786 27.5404 20.4375 26.2773C19.0964 25.0013 18.1523 23.5234 17.6055 21.8438C17.0456 23.5234 16.0885 25.0013 14.7344 26.2773C13.3932 27.5404 11.8893 28.5755 10.2227 29.3828C8.55599 30.1771 6.86979 30.7891 5.16406 31.2188L4.53906 30.2031C6.41406 29.7865 8.29557 29.0833 10.1836 28.0938C12.0846 27.1042 13.6862 25.8151 14.9883 24.2266C16.3034 22.638 16.9609 20.8151 16.9609 18.7578V18.1328H5.20312V17H16.9609V11.8438H18.1719V17H29.9297V18.1328H18.1719V18.7578ZM53.4453 17.5078H63.0547V10.8672H64.3438V35.7109H63.0547V25.9453H53.4453V29.1484H38.4453V14.0312H53.4453V17.5078ZM39.6562 28.0547H52.2344V15.1641H39.6562V28.0547ZM65.2422 43.875H43.0547V33.5625H44.2656V42.7031H65.2422V43.875ZM63.0547 24.6953V18.6797H53.4453V24.6953H63.0547ZM74.0703 42.1562C73.7318 42.1562 73.4388 42.0391 73.1914 41.8047C72.944 41.5573 72.8203 41.2708 72.8203 40.9453C72.8203 40.6068 72.944 40.3138 73.1914 40.0664C73.4518 39.819 73.7448 39.6953 74.0703 39.6953C74.3958 39.6953 74.6758 39.819 74.9102 40.0664C75.1576 40.3138 75.2812 40.6068 75.2812 40.9453C75.2812 41.2708 75.1641 41.5573 74.9297 41.8047C74.6953 42.0391 74.4089 42.1562 74.0703 42.1562ZM74.0703 24.2656C73.7318 24.2656 73.4388 24.1484 73.1914 23.9141C72.944 23.6667 72.8203 23.3802 72.8203 23.0547C72.8203 22.7161 72.944 22.4232 73.1914 22.1758C73.4518 21.9284 73.7448 21.8047 74.0703 21.8047C74.3958 21.8047 74.6758 21.9284 74.9102 22.1758C75.1576 22.4232 75.2812 22.7161 75.2812 23.0547C75.2812 23.3802 75.1641 23.6667 74.9297 23.9141C74.6953 24.1484 74.4089 24.2656 74.0703 24.2656Z" fill="black"/>
<path d="M93.92 19.68H118.12V33.16H106.68V37.92H123.44V39.24H106.68V45.96H105.32V39.24H88.48V37.92H105.32V33.16H93.92V19.68ZM116.8 31.88V26.88H95.24V31.88H116.8ZM95.24 25.64H116.8V20.92H95.24V25.64ZM88.96 13.16H98.16V9.52H99.48V13.16H104.96V14.48H99.48V18.16H98.16V14.48H88.96V13.16ZM112.56 9.52H113.88V13.16H123.08V14.48H113.88V18.16H112.56V14.48H107.04V13.16H112.56V9.52ZM144.08 29.72V43.56C147.28 42.76 150.32 41.84 153.2 40.72L153.48 42C150.52 43.16 146.88 44.2 142.52 45.12L142.08 44C142.52 43.88 142.76 43.56 142.76 43V11.48H160.92V21.4H154.56C154.56 24 154.64 26.32 154.8 28.36H163.28V29.72H154.88C155.04 31.72 155.28 33.44 155.6 34.88C156.16 37.92 157 40.28 158.04 42.04C159 43.44 159.84 44.16 160.64 44.16C161.4 44.16 162.2 41.76 163 37.04L164.12 37.72C163.16 42.92 162.08 45.56 160.8 45.56C159.56 45.56 158.36 44.72 157.2 43.12C155.96 41.16 155 38.64 154.36 35.52C154 33.88 153.72 31.96 153.56 29.72H144.08ZM153.24 21.4H144.08V28.36H153.48C153.32 26.24 153.24 23.92 153.24 21.4ZM144.08 20.12H159.64V12.76H144.08V20.12ZM139.16 12V43.08H137.88V39.64H130.8V44H129.52V12H139.16ZM130.8 38.32H137.88V30.64H130.8V38.32ZM130.8 29.4H137.88V22H130.8V29.4ZM130.8 20.68H137.88V13.32H130.8V20.68Z" fill="black"/>
</svg>
