<svg width="15" height="10" viewBox="0 0 15 10" fill="none" xmlns="http://www.w3.org/2000/svg">
<path d="M6.83008 6.5C6.83008 7.10156 6.6888 7.64388 6.40625 8.12695C6.1237 8.61003 5.73861 8.99512 5.25098 9.28223C4.7679 9.56478 4.22103 9.70605 3.61035 9.70605C2.99056 9.70605 2.41862 9.55111 1.89453 9.24121C1.375 8.92676 0.955729 8.47559 0.636719 7.8877C0.322266 7.2998 0.165039 6.59115 0.165039 5.76172C0.165039 5.02344 0.294922 4.3444 0.554688 3.72461C0.814453 3.10482 1.16764 2.56022 1.61426 2.09082C1.94238 1.73991 2.31608 1.43457 2.73535 1.1748C3.15918 0.915039 3.61035 0.71224 4.08887 0.566406C4.22559 0.525391 4.34635 0.49349 4.45117 0.470703C4.55599 0.447917 4.66309 0.436523 4.77246 0.436523C4.90918 0.436523 5.02083 0.47526 5.10742 0.552734C5.19401 0.625651 5.2373 0.721354 5.2373 0.839844C5.2373 0.917318 5.2168 0.983398 5.17578 1.03809C5.13932 1.08822 5.09147 1.12695 5.03223 1.1543C4.99121 1.18164 4.93424 1.20898 4.86133 1.23633C4.79297 1.25911 4.71322 1.28418 4.62207 1.31152C4.18913 1.4209 3.78809 1.5804 3.41895 1.79004C3.05436 1.99512 2.73079 2.23665 2.44824 2.51465C2.16569 2.78809 1.92871 3.08431 1.7373 3.40332C1.55046 3.71777 1.41374 4.03906 1.32715 4.36719H1.51172C1.82161 4.0026 2.1748 3.73372 2.57129 3.56055C2.96777 3.38737 3.37337 3.30078 3.78809 3.30078C4.3623 3.30078 4.87728 3.44434 5.33301 3.73145C5.79329 4.01855 6.15788 4.40365 6.42676 4.88672C6.69564 5.36979 6.83008 5.90755 6.83008 6.5ZM14.835 6.5C14.835 7.10156 14.6937 7.64388 14.4111 8.12695C14.1286 8.61003 13.7435 8.99512 13.2559 9.28223C12.7728 9.56478 12.2259 9.70605 11.6152 9.70605C10.9909 9.70605 10.4167 9.55111 9.89258 9.24121C9.37305 8.92676 8.95605 8.47559 8.6416 7.8877C8.32715 7.2998 8.16992 6.59115 8.16992 5.76172C8.16992 5.02344 8.29753 4.3444 8.55273 3.72461C8.8125 3.10482 9.16569 2.56022 9.6123 2.09082C9.94043 1.73991 10.3141 1.43457 10.7334 1.1748C11.1572 0.915039 11.6084 0.71224 12.0869 0.566406C12.2282 0.525391 12.349 0.49349 12.4492 0.470703C12.554 0.447917 12.6634 0.436523 12.7773 0.436523C12.9186 0.436523 13.0303 0.47526 13.1123 0.552734C13.1943 0.625651 13.2354 0.721354 13.2354 0.839844C13.2354 0.917318 13.2171 0.983398 13.1807 1.03809C13.1442 1.08822 13.0964 1.12695 13.0371 1.1543C12.9915 1.18164 12.9323 1.20898 12.8594 1.23633C12.791 1.25911 12.7113 1.28418 12.6201 1.31152C12.1872 1.4209 11.7884 1.5804 11.4238 1.79004C11.0592 1.99512 10.7334 2.23665 10.4463 2.51465C10.1637 2.78809 9.92676 3.08431 9.73535 3.40332C9.5485 3.71777 9.41406 4.03906 9.33203 4.36719H9.5166C9.82194 4.0026 10.1729 3.73372 10.5693 3.56055C10.9658 3.38737 11.3737 3.30078 11.793 3.30078C12.3672 3.30078 12.8822 3.44434 13.3379 3.73145C13.7982 4.01855 14.1628 4.40365 14.4316 4.88672C14.7005 5.36979 14.835 5.90755 14.835 6.5Z" fill="black"/>
</svg>
