<svg width="20" height="25" viewBox="0 0 20 25" fill="none" xmlns="http://www.w3.org/2000/svg">
<path d="M4.01172 24.9492C3.04297 24.9492 2.29688 24.6953 1.77344 24.1875C1.25 23.6797 0.988281 22.9648 0.988281 22.043V3.33984C0.988281 2.30078 1.25391 1.51562 1.78516 0.984375C2.31641 0.445312 3.10156 0.175781 4.14062 0.175781H16.7734C17.8047 0.175781 18.5859 0.445312 19.1172 0.984375C19.6484 1.51562 19.9141 2.30078 19.9141 3.33984V17.0508C19.9141 17.5742 19.832 18.0195 19.668 18.3867C19.5039 18.7461 19.3086 19.0586 19.082 19.3242C18.5586 19.9023 18.2461 20.4922 18.1445 21.0938C18.0508 21.7031 18.1367 22.2734 18.4023 22.8047C18.668 23.3359 19.0859 23.7734 19.6562 24.1172C19.7344 24.1562 19.7969 24.2109 19.8438 24.2812C19.8906 24.3594 19.9141 24.4375 19.9141 24.5156C19.9141 24.6484 19.875 24.7539 19.7969 24.832C19.7266 24.9102 19.6289 24.9492 19.5039 24.9492H4.01172ZM1.85547 19.9922C2.10547 19.7031 2.40234 19.4883 2.74609 19.3477C3.09766 19.1992 3.53516 19.125 4.05859 19.125H16.9023C18.332 19.125 19.0469 18.4102 19.0469 16.9805V3.36328C19.0469 2.60547 18.8516 2.03125 18.4609 1.64062C18.0703 1.24219 17.4922 1.04297 16.7266 1.04297H4.17578C3.41016 1.04297 2.83203 1.24219 2.44141 1.64062C2.05078 2.03125 1.85547 2.60547 1.85547 3.36328V19.9922ZM4.05859 24.082H18.4258C17.8086 23.5508 17.4375 22.9023 17.3125 22.1367C17.1875 21.3789 17.3516 20.6133 17.8047 19.8398C17.4766 19.9414 17.1133 19.9922 16.7148 19.9922H4.07031C3.38281 19.9922 2.83984 20.1719 2.44141 20.5312C2.05078 20.8906 1.85547 21.3828 1.85547 22.0078C1.85547 22.6641 2.04688 23.1719 2.42969 23.5312C2.82031 23.8984 3.36328 24.082 4.05859 24.082ZM3.32031 19.582V0.714844H4.11719V19.582H3.32031Z" fill="black"/>
</svg>
