<svg width="15" height="10" viewBox="0 0 15 10" fill="none" xmlns="http://www.w3.org/2000/svg">
<path d="M0.165039 3.64258C0.165039 3.04102 0.306315 2.4987 0.588867 2.01562C0.871419 1.53255 1.25423 1.14974 1.7373 0.867188C2.22038 0.580078 2.76953 0.436523 3.38477 0.436523C4.00456 0.436523 4.57422 0.591471 5.09375 0.901367C5.61784 1.21126 6.03711 1.66016 6.35156 2.24805C6.67057 2.83594 6.83008 3.54688 6.83008 4.38086C6.83008 5.11914 6.7002 5.79818 6.44043 6.41797C6.18522 7.03776 5.83431 7.58236 5.3877 8.05176C5.05501 8.40267 4.67904 8.70801 4.25977 8.96777C3.84049 9.22754 3.38932 9.43034 2.90625 9.57617C2.76953 9.61719 2.64876 9.64909 2.54395 9.67188C2.43913 9.69466 2.32747 9.70605 2.20898 9.70605C2.07682 9.70605 1.96973 9.6696 1.8877 9.59668C1.80566 9.51921 1.76465 9.42122 1.76465 9.30273C1.76465 9.22526 1.78288 9.16146 1.81934 9.11133C1.85579 9.05664 1.90365 9.01562 1.96289 8.98828C2.00391 8.95638 2.06087 8.92904 2.13379 8.90625C2.20671 8.88346 2.28874 8.8584 2.37988 8.83105C2.81283 8.72168 3.21159 8.56445 3.57617 8.35938C3.94076 8.14974 4.26432 7.9082 4.54688 7.63477C4.82943 7.35677 5.06413 7.06055 5.25098 6.74609C5.44238 6.42708 5.58138 6.10352 5.66797 5.77539H5.4834C5.17806 6.13542 4.82487 6.40202 4.42383 6.5752C4.02734 6.74837 3.62174 6.83496 3.20703 6.83496C2.63281 6.83496 2.11556 6.69368 1.65527 6.41113C1.19499 6.12402 0.830404 5.73893 0.561523 5.25586C0.297201 4.77279 0.165039 4.23503 0.165039 3.64258ZM8.16992 3.64258C8.16992 3.04102 8.3112 2.4987 8.59375 2.01562C8.8763 1.53255 9.25911 1.14974 9.74219 0.867188C10.2253 0.580078 10.7744 0.436523 11.3896 0.436523C12.0094 0.436523 12.5791 0.591471 13.0986 0.901367C13.6227 1.21126 14.042 1.66016 14.3564 2.24805C14.6755 2.83594 14.835 3.54688 14.835 4.38086C14.835 5.11914 14.7051 5.79818 14.4453 6.41797C14.1855 7.03776 13.8301 7.58236 13.3789 8.05176C13.0553 8.40267 12.6816 8.70801 12.2578 8.96777C11.8385 9.22754 11.3874 9.43034 10.9043 9.57617C10.7721 9.61719 10.6514 9.64909 10.542 9.67188C10.4372 9.69466 10.3301 9.70605 10.2207 9.70605C10.0885 9.70605 9.97917 9.6696 9.89258 9.59668C9.80599 9.51921 9.7627 9.42122 9.7627 9.30273C9.7627 9.22526 9.78092 9.16146 9.81738 9.11133C9.8584 9.05664 9.90853 9.01562 9.96777 8.98828C10.0088 8.95638 10.0635 8.92904 10.1318 8.90625C10.2048 8.88346 10.2868 8.8584 10.3779 8.83105C10.8109 8.72168 11.2096 8.56445 11.5742 8.35938C11.9434 8.14974 12.2692 7.9082 12.5518 7.63477C12.8343 7.35677 13.069 7.06055 13.2559 6.74609C13.4473 6.42708 13.584 6.10352 13.666 5.77539H13.4883C13.1784 6.13542 12.8252 6.40202 12.4287 6.5752C12.0322 6.74837 11.6243 6.83496 11.2051 6.83496C10.6309 6.83496 10.1159 6.69368 9.66016 6.41113C9.20443 6.12402 8.84212 5.73893 8.57324 5.25586C8.30436 4.77279 8.16992 4.23503 8.16992 3.64258Z" fill="black"/>
</svg>
