<svg width="25" height="25" viewBox="0 0 25 25" fill="none" xmlns="http://www.w3.org/2000/svg">
<path d="M10.9844 24.6211C10.625 24.6211 10.3242 24.5234 10.082 24.3281C9.84766 24.1328 9.6875 23.8477 9.60156 23.4727L9.0625 21.1289L8.24219 20.8359L6.20312 22.1133C5.89062 22.3242 5.57812 22.4102 5.26562 22.3711C4.96094 22.3398 4.67969 22.1953 4.42188 21.9375L2.76953 20.2969C2.50391 20.0391 2.35547 19.7539 2.32422 19.4414C2.29297 19.1289 2.37891 18.8164 2.58203 18.5039L3.87109 16.4648L3.56641 15.668L1.24609 15.1172C0.871094 15.0312 0.585938 14.8711 0.390625 14.6367C0.195312 14.3945 0.0976562 14.0938 0.0976562 13.7344V11.3789C0.0976562 11.0195 0.195312 10.7227 0.390625 10.4883C0.585938 10.2461 0.871094 10.082 1.24609 9.99609L3.56641 9.44531L3.87109 8.63672L2.58203 6.60938C2.37891 6.28906 2.29297 5.97656 2.32422 5.67188C2.35547 5.35937 2.50391 5.07422 2.76953 4.81641L4.42188 3.16406C4.67969 2.90625 4.96094 2.76172 5.26562 2.73047C5.57031 2.69922 5.88281 2.78516 6.20312 2.98828L8.24219 4.27734L9.0625 3.97266L9.60156 1.62891C9.6875 1.25391 9.84766 0.96875 10.082 0.773438C10.3242 0.578125 10.625 0.480469 10.9844 0.480469H13.3516C13.7188 0.480469 14.0195 0.578125 14.2539 0.773438C14.4883 0.96875 14.6484 1.25391 14.7344 1.62891L15.2734 3.97266L16.082 4.27734L18.1328 2.98828C18.4453 2.78516 18.7539 2.69922 19.0586 2.73047C19.3633 2.76172 19.6445 2.90625 19.9023 3.16406L21.5664 4.81641C21.8242 5.07422 21.9688 5.35937 22 5.67188C22.0391 5.97656 21.957 6.28906 21.7539 6.60938L20.4531 8.63672L20.7578 9.44531L23.0898 9.99609C23.4648 10.082 23.75 10.2461 23.9453 10.4883C24.1406 10.7227 24.2383 11.0195 24.2383 11.3789V13.7344C24.2383 14.0938 24.1406 14.3945 23.9453 14.6367C23.75 14.8711 23.4648 15.0312 23.0898 15.1172L20.7578 15.668L20.4531 16.4648L21.7422 18.5039C21.9453 18.8164 22.0273 19.1289 21.9883 19.4414C21.957 19.7539 21.8125 20.0391 21.5547 20.2969L19.9023 21.9375C19.6445 22.1953 19.3594 22.3398 19.0469 22.3711C18.7422 22.4102 18.4336 22.3242 18.1211 22.1133L16.082 20.8359L15.2734 21.1289L14.7344 23.4727C14.6484 23.8477 14.4883 24.1328 14.2539 24.3281C14.0195 24.5234 13.7188 24.6211 13.3516 24.6211H10.9844ZM11.1016 23.7656H13.2461C13.6289 23.7656 13.8555 23.582 13.9258 23.2148L14.5703 20.4258C14.8438 20.3555 15.1094 20.2695 15.3672 20.168C15.625 20.0586 15.8633 19.957 16.082 19.8633L18.4961 21.375C18.8086 21.5781 19.1055 21.5391 19.3867 21.2578L20.8867 19.7695C21.1523 19.4961 21.1836 19.1992 20.9805 18.8789L19.4688 16.4648C19.5703 16.2461 19.6719 16.0078 19.7734 15.75C19.8828 15.4844 19.9766 15.2148 20.0547 14.9414L22.8438 14.3086C23.2109 14.2305 23.3945 14.0039 23.3945 13.6289V11.4844C23.3945 11.1094 23.2109 10.8828 22.8438 10.8047L20.0547 10.1602C19.9766 9.87891 19.8828 9.60938 19.7734 9.35156C19.6719 9.08594 19.5703 8.85156 19.4688 8.64844L20.9805 6.23438C21.1836 5.90625 21.1523 5.60938 20.8867 5.34375L19.3867 3.84375C19.1055 3.57031 18.8086 3.53516 18.4961 3.73828L16.082 5.25C15.8633 5.14844 15.625 5.04688 15.3672 4.94531C15.1172 4.84375 14.8516 4.75391 14.5703 4.67578L13.9258 1.88672C13.8555 1.51172 13.6289 1.32422 13.2461 1.32422H11.1016C10.7188 1.32422 10.4883 1.51172 10.4102 1.88672L9.77734 4.66406C9.51172 4.75 9.24219 4.84375 8.96875 4.94531C8.70312 5.04688 8.45703 5.14844 8.23047 5.25L5.82812 3.73828C5.51562 3.53516 5.21875 3.57031 4.9375 3.84375L3.4375 5.34375C3.17188 5.60938 3.14062 5.90625 3.34375 6.23438L4.85547 8.64844C4.76953 8.85156 4.67188 9.08594 4.5625 9.35156C4.46094 9.61719 4.36719 9.88672 4.28125 10.1602L1.50391 10.8047C1.13672 10.8828 0.953125 11.1094 0.953125 11.4844V13.6289C0.953125 14.0039 1.13672 14.2305 1.50391 14.3086L4.28125 14.9414C4.35938 15.2148 4.45312 15.4844 4.5625 15.75C4.67188 16.0078 4.76953 16.2461 4.85547 16.4648L3.35547 18.8789C3.14453 19.1992 3.17188 19.4961 3.4375 19.7695L4.9375 21.2578C5.22656 21.5391 5.52344 21.5781 5.82812 21.375L8.23047 19.8633C8.45703 19.957 8.70312 20.0586 8.96875 20.168C9.23438 20.2695 9.50391 20.3555 9.77734 20.4258L10.4102 23.2148C10.4883 23.582 10.7188 23.7656 11.1016 23.7656ZM12.1797 17.0273C11.3594 17.0273 10.6055 16.8242 9.91797 16.418C9.23828 16.0117 8.69531 15.4688 8.28906 14.7891C7.88281 14.1094 7.67969 13.3594 7.67969 12.5391C7.67969 11.7266 7.88281 10.9805 8.28906 10.3008C8.70312 9.62109 9.25 9.08203 9.92969 8.68359C10.6172 8.27734 11.3672 8.07422 12.1797 8.07422C13 8.07422 13.75 8.27734 14.4297 8.68359C15.1094 9.08203 15.6523 9.62109 16.0586 10.3008C16.4648 10.9805 16.668 11.7266 16.668 12.5391C16.668 13.3594 16.4648 14.1133 16.0586 14.8008C15.6523 15.4805 15.1094 16.0234 14.4297 16.4297C13.75 16.8281 13 17.0273 12.1797 17.0273ZM12.1797 16.1836C12.8359 16.1836 13.4375 16.0195 13.9844 15.6914C14.5391 15.3555 14.9805 14.9102 15.3086 14.3555C15.6445 13.8008 15.8125 13.1953 15.8125 12.5391C15.8125 11.8828 15.6445 11.2812 15.3086 10.7344C14.9805 10.1875 14.5391 9.75 13.9844 9.42188C13.4375 9.08594 12.8359 8.91797 12.1797 8.91797C11.5234 8.91797 10.918 9.08594 10.3633 9.42188C9.81641 9.75 9.375 10.1875 9.03906 10.7344C8.70312 11.2812 8.53516 11.8828 8.53516 12.5391C8.53516 13.2031 8.69922 13.8125 9.02734 14.3672C9.36328 14.9141 9.80469 15.3555 10.3516 15.6914C10.9062 16.0195 11.5156 16.1836 12.1797 16.1836Z" fill="black"/>
</svg>
