<svg width="22" height="26" viewBox="0 0 22 26" fill="none" xmlns="http://www.w3.org/2000/svg">
<path d="M9.74219 25.4805C8.27344 25.4805 6.94922 25.2344 5.76953 24.7422C4.58984 24.25 3.58203 23.5625 2.74609 22.6797C1.91016 21.8047 1.26953 20.7852 0.824219 19.6211C0.386719 18.457 0.167969 17.1992 0.167969 15.8477C0.167969 14.4648 0.398438 13.1875 0.859375 12.0156C1.32031 10.8359 1.96094 9.79688 2.78125 8.89844C3.60156 8 4.54297 7.28125 5.60547 6.74219C5.80859 6.64062 5.98047 6.59375 6.12109 6.60156C6.26953 6.60938 6.38672 6.65625 6.47266 6.74219C6.64453 6.92969 6.65234 7.18359 6.49609 7.50391C6.25391 8.02734 6.07422 8.60156 5.95703 9.22656C5.84766 9.85156 5.79297 10.4648 5.79297 11.0664C5.79297 12.9336 6.15625 14.5312 6.88281 15.8594C7.60938 17.1797 8.63281 18.1953 9.95312 18.9062C11.2812 19.6094 12.8555 19.9609 14.6758 19.9609C15.3945 19.9609 16.0273 19.9102 16.5742 19.8086C17.1211 19.6992 17.6289 19.5547 18.0977 19.375C18.2617 19.3125 18.4023 19.293 18.5195 19.3164C18.6367 19.332 18.7266 19.375 18.7891 19.4453C18.8594 19.5234 18.8945 19.6289 18.8945 19.7617C18.9023 19.8867 18.875 20.0273 18.8125 20.1836C18.2969 21.3008 17.5938 22.2539 16.7031 23.043C15.8125 23.832 14.7773 24.4336 13.5977 24.8477C12.418 25.2695 11.1328 25.4805 9.74219 25.4805ZM9.75391 24.6602C10.9492 24.6602 12.0742 24.4805 13.1289 24.1211C14.1836 23.7617 15.1211 23.25 15.9414 22.5859C16.7617 21.9297 17.4141 21.1445 17.8984 20.2305C17.5 20.3789 17.0117 20.5078 16.4336 20.6172C15.8555 20.7188 15.2383 20.7695 14.582 20.7695C12.6367 20.7695 10.9453 20.3867 9.50781 19.6211C8.07031 18.8477 6.95703 17.7461 6.16797 16.3164C5.38672 14.8789 4.99609 13.1719 4.99609 11.1953C4.99609 10.5156 5.05469 9.85547 5.17188 9.21484C5.28906 8.56641 5.45312 8.02734 5.66406 7.59766C4.77344 8.16797 3.97656 8.87109 3.27344 9.70703C2.57031 10.5352 2.01172 11.4688 1.59766 12.5078C1.18359 13.5391 0.976562 14.6406 0.976562 15.8125C0.976562 17.0391 1.17969 18.1875 1.58594 19.2578C2 20.3281 2.58594 21.2695 3.34375 22.082C4.10938 22.8945 5.03125 23.5273 6.10938 23.9805C7.19531 24.4336 8.41016 24.6602 9.75391 24.6602ZM16.375 4.92578C16.4766 4.92578 16.5625 4.96094 16.6328 5.03125C16.7031 5.10156 16.7383 5.18359 16.7383 5.27734C16.7383 5.37891 16.7031 5.46484 16.6328 5.53516C16.5625 5.59766 16.4766 5.62891 16.375 5.62891H12.9414C12.8164 5.62891 12.707 5.59375 12.6133 5.52344C12.5273 5.45312 12.4844 5.35547 12.4844 5.23047C12.4844 5.14453 12.5039 5.06641 12.543 4.99609C12.582 4.92578 12.6445 4.83984 12.7305 4.73828L15.543 1.11719V1.05859H12.8477C12.7383 1.05859 12.6484 1.02344 12.5781 0.953125C12.5078 0.882812 12.4727 0.796875 12.4727 0.695312C12.4727 0.601562 12.5078 0.523437 12.5781 0.460938C12.6484 0.390625 12.7383 0.355469 12.8477 0.355469H16.1406C16.2734 0.355469 16.3828 0.390625 16.4688 0.460938C16.5625 0.53125 16.6094 0.625 16.6094 0.742188C16.6094 0.828125 16.5859 0.90625 16.5391 0.976562C16.5 1.04688 16.4375 1.13672 16.3516 1.24609L13.5508 4.86719V4.92578H16.375ZM21.2852 9.15625C21.5195 9.15625 21.6367 9.26953 21.6367 9.49609C21.6367 9.59766 21.6055 9.67969 21.543 9.74219C21.4805 9.80469 21.3945 9.83594 21.2852 9.83594H18.4023C18.2773 9.83594 18.1719 9.80469 18.0859 9.74219C18 9.67188 17.957 9.57422 17.957 9.44922C17.957 9.36328 17.9766 9.28516 18.0156 9.21484C18.0547 9.14453 18.1172 9.0625 18.2031 8.96875L20.4648 6.02734V5.98047H18.3086C18.207 5.98047 18.1211 5.94922 18.0508 5.88672C17.9805 5.81641 17.9453 5.73047 17.9453 5.62891C17.9453 5.53516 17.9805 5.45312 18.0508 5.38281C18.1211 5.3125 18.207 5.27734 18.3086 5.27734H21.0742C21.1992 5.27734 21.3047 5.3125 21.3906 5.38281C21.4766 5.45312 21.5195 5.55078 21.5195 5.67578C21.5195 5.76172 21.5 5.83984 21.4609 5.91016C21.4219 5.97266 21.3633 6.05469 21.2852 6.15625L18.9883 9.09766V9.15625H21.2852ZM16.5156 12.8125C16.75 12.8125 16.8672 12.9219 16.8672 13.1406C16.8672 13.2344 16.8359 13.3164 16.7734 13.3867C16.7109 13.4492 16.625 13.4805 16.5156 13.4805H14.0547C13.9375 13.4805 13.8359 13.4492 13.75 13.3867C13.6641 13.3164 13.6211 13.2227 13.6211 13.1055C13.6211 13.0195 13.6406 12.9453 13.6797 12.8828C13.7188 12.8125 13.7773 12.7266 13.8555 12.625L15.7188 10.2344V10.1758H13.9609C13.8594 10.1758 13.7773 10.1445 13.7148 10.082C13.6523 10.0117 13.6211 9.92969 13.6211 9.83594C13.6211 9.74219 13.6523 9.66406 13.7148 9.60156C13.7773 9.53125 13.8594 9.49609 13.9609 9.49609H16.293C16.418 9.49609 16.5234 9.53125 16.6094 9.60156C16.7031 9.66406 16.75 9.75781 16.75 9.88281C16.75 9.96094 16.7266 10.0352 16.6797 10.1055C16.6406 10.1758 16.582 10.2617 16.5039 10.3633L14.6289 12.7422V12.8125H16.5156Z" fill="black"/>
</svg>
